<svg xmlns="http://www.w3.org/2000/svg" width="805" height="600"><rect width="805" height="600" x="0" y="0" fill="#FFFFFF" id="backgorund"/><g id="viz"><clipPath id="serieClipPath"><rect x="-50" y="-10" width="805" height="600"/></clipPath><g transform="translate(0,0)"><g transform="translate(50,10)" clip-path="url(#serieClipPath)"><g id="axis"><g transform="translate(0,570)" fill="none" font-size="10" font-family="sans-serif" text-anchor="middle"><path class="domain" stroke="currentColor" d="M0.5,6V0.5H740.5V6"/><g class="tick" opacity="1" transform="translate(0.5,0)"><line stroke="currentColor" y2="6"/><text fill="currentColor" y="9" dy="0.71em">0100</text></g><g class="tick" opacity="1" transform="translate(82.67219348950411,0)"><line stroke="currentColor" y2="6"/><text fill="currentColor" y="9" dy="0.71em">0101</text></g><g class="tick" opacity="1" transform="translate(164.84438697900822,0)"><line stroke="currentColor" y2="6"/><text fill="currentColor" y="9" dy="0.71em">0102</text></g><g class="tick" opacity="1" transform="translate(247.0165804685123,0)"><line stroke="currentColor" y2="6"/><text fill="currentColor" y="9" dy="0.71em">0103</text></g><g class="tick" opacity="1" transform="translate(329.18877395801644,0)"><line stroke="currentColor" y2="6"/><text fill="currentColor" y="9" dy="0.71em">0104</text></g><g class="tick" opacity="1" transform="translate(411.586096744752,0)"><line stroke="currentColor" y2="6"/><text fill="currentColor" y="9" dy="0.71em">0105</text></g><g class="tick" opacity="1" transform="translate(493.75829023425615,0)"><line stroke="currentColor" y2="6"/><text fill="currentColor" y="9" dy="0.71em">0106</text></g><g class="tick" opacity="1" transform="translate(575.9304837237602,0)"><line stroke="currentColor" y2="6"/><text fill="currentColor" y="9" dy="0.71em">0107</text></g><g class="tick" opacity="1" transform="translate(658.1026772132644,0)"><line stroke="currentColor" y2="6"/><text fill="currentColor" y="9" dy="0.71em">0108</text></g><g class="tick" opacity="1" transform="translate(740.5,0)"><line stroke="currentColor" y2="6"/><text fill="currentColor" y="9" dy="0.71em">0109</text></g><text x="740" dy="-5" text-anchor="end" style="font-family: Arial, sans-serif; font-size: 12px; fill: rgb(123, 123, 123); font-weight: bold;">年別</text></g><g transform="translate(0,0)" fill="none" font-size="10" font-family="sans-serif" text-anchor="end"><path class="domain" stroke="currentColor" d="M0.5,570.5V0.5"/><g class="tick" opacity="1" transform="translate(0,570.5)"><line stroke="currentColor" x2="-6"/><text fill="currentColor" x="-9" dy="0.32em">1,000,000</text></g><g class="tick" opacity="1" transform="translate(0,518.6818181818181)"><line stroke="currentColor" x2="-6"/><text fill="currentColor" x="-9" dy="0.32em">2,000,000</text></g><g class="tick" opacity="1" transform="translate(0,466.8636363636363)"><line stroke="currentColor" x2="-6"/><text fill="currentColor" x="-9" dy="0.32em">3,000,000</text></g><g class="tick" opacity="1" transform="translate(0,415.04545454545456)"><line stroke="currentColor" x2="-6"/><text fill="currentColor" x="-9" dy="0.32em">4,000,000</text></g><g class="tick" opacity="1" transform="translate(0,363.22727272727275)"><line stroke="currentColor" x2="-6"/><text fill="currentColor" x="-9" dy="0.32em">5,000,000</text></g><g class="tick" opacity="1" transform="translate(0,311.4090909090909)"><line stroke="currentColor" x2="-6"/><text fill="currentColor" x="-9" dy="0.32em">6,000,000</text></g><g class="tick" opacity="1" transform="translate(0,259.5909090909091)"><line stroke="currentColor" x2="-6"/><text fill="currentColor" x="-9" dy="0.32em">7,000,000</text></g><g class="tick" opacity="1" transform="translate(0,207.77272727272728)"><line stroke="currentColor" x2="-6"/><text fill="currentColor" x="-9" dy="0.32em">8,000,000</text></g><g class="tick" opacity="1" transform="translate(0,155.95454545454544)"><line stroke="currentColor" x2="-6"/><text fill="currentColor" x="-9" dy="0.32em">9,000,000</text></g><g class="tick" opacity="1" transform="translate(0,104.13636363636361)"><line stroke="currentColor" x2="-6"/><text fill="currentColor" x="-9" dy="0.32em">10,000,000</text></g><g class="tick" opacity="1" transform="translate(0,52.318181818181834)"><line stroke="currentColor" x2="-6"/><text fill="currentColor" x="-9" dy="0.32em">11,000,000</text></g><g class="tick" opacity="1" transform="translate(0,0.5)"><line stroke="currentColor" x2="-6"/><text fill="currentColor" x="-9" dy="0.32em">12,000,000</text></g><text x="4" text-anchor="start" dominant-baseline="hanging" style="font-family: Arial, sans-serif; font-size: 12px; fill: rgb(123, 123, 123); font-weight: bold;">小計</text></g></g><g id="viz"><g><path d="M0,306.3758290909091L13.695365581584019,295.8050409090909C27.390731163168038,285.23425272727275,54.781462326336076,264.0926763636364,82.17219348950411,247.43489272727274C109.56292465267215,230.7771090909091,136.9536558158402,218.6031181818182,164.34438697900822,196.15950636363638C191.73511814217625,173.71589454545452,219.1258493053443,141.00266181818182,246.5165804685123,120.07239136363637C273.90731163168033,99.1421209090909,301.2980427948484,89.99481272727273,328.726295507555,83.25780136363636C356.15454822026163,76.52079,383.6203224825069,72.19407545454547,411.04857519521346,69.60475545454547C438.47682790792004,67.01543545454548,465.8675590710881,66.16351000000002,493.2582902342561,62.91254090909093C520.6490213974242,59.66157181818184,548.0397525605922,54.01155909090911,575.4304837237602,44.299933636363654C602.8212148869283,34.5883081818182,630.2119460500963,20.815070000000002,657.6401987628029,104.49146727272728C685.0684514755097,188.16786454545456,712.5342257377548,369.2938972727273,726.2671128688775,459.8569136363637L740,550.41993" stroke="#1f77b4" fill="none"/><text font-family="sans-serif" font-size="10" class="labels" x="657.6026772132644" y="7.041831818181812" dx="0" dy="-4" text-anchor="middle"/></g></g></g><text y="4" x="4" style="font-family: Arial, sans-serif; font-size: 12px; fill: black; font-weight: bold; dominant-baseline: hanging;"/></g><g id="grid"><rect x="0" y="0" width="805" height="600" fill="none" stroke="#ccc"/></g></g></svg>